{"title":"TheConfession.","uid":6989518,"size":638695565,"categoryP":"video","categoryS":"movies","magnet":"?xt=urn:btih:b76f7730306bdb57ffe1f0b0e409204012013961&amp;dn=TheConfession.&amp;tr=udp%3A%2F%2Ftracker.openbittorrent.com%3A80&amp;tr=udp%3A%2F%2Fopen.demonii.com%3A1337&amp;tr=udp%3A%2F%2Ftracker.coppersurfer.tk%3A6969&amp;tr=udp%3A%2F%2Fexodus.desync.com%3A6969","seeders":0,"leechers":0,"uploader":"moviesp2p","files":3,"time":1327662554,"description":"---------------------------\n| M O V I E   information |\n---------------------------\n  Title................................: The Confession\n  International title(s)...............: N/A\n  Director.............................: Brad Mirman\n  Release year.........................: 2012\n  Language.............................: English\n  Runtime..............................: 1hr 2min\n  Genre................................: Drama\n  Color................................: Yes\n  IMDb rating..........................: 8.7/10\n  Link 1...............................: http://www.imdb.com/title/tt1809362/\n  Link 2...............................: http://www.amazon.com/Confession-John-Hurt/dp/B005TZFZ5Q/ref=sr_1_1?s=movies-tv&amp;ie=UTF8&amp;qid=1327444653&amp;sr=1-1\n  Studio...............................: New Video Group\n  Subtitles............................: No\n\nSource (DVD/DVDR 5,9)..................: Apple\nTotal movie's files size...............: 593 MB\n\n-------------------\n| Video Attribute |\n-------------------\n  Video compression mode...............: N/A\n  TV system (NTSC/PAL).................: N/A\n  Aspect ratio.........................: N/A\n  Source picture resolution............: N/A\n  Frame rate...........................: N/A\n\n-------- Subpicture attributes --------\n  Number of subtitles..................: N/A\n  Subtitle language/s..................: N/A\n\n-------------------\n| Audio Attribute |\n-------------------\n  Audio coding mode....................: N/A\n  Sampling rate........................: N/A\n  Number of audio channels.............: N/A\n  Bitrate..............................: N/A\n  Number of audio streams..............: N/A\n  Audio stream language/s..............: N/A\n\n-------------------\n| RIP Information |\n-------------------\n  Video (Untouched/Re-encoded-%).......: N/A\n  Audio (Untouched/Stripped)...........: N/A\n  Menus (Untouched/Stripped)...........: N/A\n  Extras (Untouched/Stripped/N/A)......: N/A\n  Subtitles (Untouched/Stripped/Added).: N/A\n\n--------------------\n| Post Information |\n--------------------\n  Posted by............................: N/A\n  Compression method (RAR/ZIP).........: N/A\n  File validation......................: N/A\n  Part size............................: N/A\n  Name of the part files...............: N/A\n  Number of files......................: N/A\n  Total files size.....................: N/A\n  Burn tested..........................: N/A\n  Date of post (d.m.y).................: 24.1.2012\n  Posted to............................: N/A\n  Re-posting policy....................: N/A\n\n----------------\n| Plot summary |\n----------------\nA unique story of redemption and an exploration of good and evil featuring a hit man and a priest. \n\n----------------\n| Release note |\n----------------\nGeneral\n\nFormat                           : AVI\nFormat/Info                      : Audio Video Interleave\nFile size                        : 593 MiB\nDuration                         : 1h 2mn\nOverall bit rate                 : 1 330 Kbps\n\nVideo\nID                               : 0\nFormat                           : MPEG-4 Visual\nFormat profile                   : Simple@L3\nFormat settings, BVOP            : No\nFormat settings, QPel            : No\nFormat settings, GMC             : No warppoints\nFormat settings, Matrix          : Default (H.263)\nCodec ID                         : XVID\nCodec ID/Hint                    : XviD\nDuration                         : 1h 2mn\nBit rate                         : 1 156 Kbps\nWidth                            : 640 pixels\nHeight                           : 416 pixels\nDisplay aspect ratio             : 3:2\nFrame rate                       : 30.000 fps\nColor space                      : YUV\nChroma subsampling               : 4:2:0\nBit depth                        : 8 bits\nScan type                        : Progressive\nCompression mode                 : Lossy\nBits/(Pixel*Frame)               : 0.145\nStream size                      : 516 MiB (87%)\nWriting library                  : XviD 1.1.2 (UTC 2006-11-01)\n\nAudio\nID                               : 1\nFormat                           : MPEG Audio\nFormat version                   : Version 1\nFormat profile                   : Layer 3\nMode                             : Joint stereo\nMode extension                   : MS Stereo\nCodec ID                         : 55\nCodec ID/Hint                    : MP3\nDuration                         : 1h 2mn\nBit rate mode                    : Constant\nBit rate                         : 160 Kbps\nChannel(s)                       : 2 channels\nSampling rate                    : 48.0 KHz\nCompression mode                 : Lossy\nStream size                      : 71.4 MiB (12%)\nAlignment                        : Split accross interleaves\nInterleave, duration             : 24 ms (0.72 video frame)\n\n\n\n---------------\n| Ripper note |\n---------------\nThis was made using Handbrake.\n\nI'm a solo act and this is a Kralcx Production\n\nHope you Enjoy!!\n\n\n------------------------------------------------------------------------------------------\nThis file was created with ArtCine NFO Creator 2.0. \nArtCine NFO Creator is a program, which can read movie data from IMDb and can also\nread IFO files from your hard disk or DVD drive for more technical data about movie.\nVisit http://www.nfo-creator.com for more information and program updates","torrent":{"xt":"urn:btih:b76f7730306bdb57ffe1f0b0e409204012013961","amp;dn":"TheConfession.","amp;tr":["udp%3A%2F%2Ftracker.openbittorrent.com%3A80","udp%3A%2F%2Fopen.demonii.com%3A1337","udp%3A%2F%2Ftracker.coppersurfer.tk%3A6969","udp%3A%2F%2Fexodus.desync.com%3A6969"],"infoHash":"b76f7730306bdb57ffe1f0b0e409204012013961","infoHashBuffer":{"type":"Buffer","data":[183,111,119,48,48,107,219,87,255,225,240,176,228,9,32,64,18,1,57,97]},"announce":[],"urlList":[]}}